PathFileType	4	(X/Y/Z)	 New Session 108.trc
DataRate	CameraRate	NumFrames	NumMarkers	Units	OrigDataRate	OrigDataStartFrame	OrigNumFrames
100	100	29	14	m	100	355	945
Frame#	Time	C7			T8			IJ			PX			AA			AC			AI			TS			SC			GH			LE			ME			US			RS			
		X1	Y1	Z1	X2	Y2	Z2	X3	Y3	Z3	X4	Y4	Z4	X5	Y5	Z5	X6	Y6	Z6	X7	Y7	Z7	X8	Y8	Z8	X9	Y9	Z9	X10	Y10	Z10	X11	Y11	Z11	X12	Y12	Z12	X13	Y13	Z13	X14	Y14	Z14	
355	3.5500	0.021793	0.102767	0.161650	0.010515	-0.114350	0.237491	0.006683	-0.002184	0.004574	0.001173	-0.143156	-0.062320	0.217541	-0.007983	0.161253	0.173341	0.036890	0.087673	0.098798	0.021138	0.211835	0.092630	-0.098409	0.244343	0.032054	0.004659	0.009940	0.232070	0.004815	0.120735	0.280057	-0.273682	0.022190	0.195197	-0.292176	-0.013230	0.321248	-0.526436	-0.093487	0.385487	-0.489513	-0.109121	
356	3.5600	0.021926	0.102802	0.161474	0.010572	-0.114308	0.237427	0.006814	-0.002239	0.004474	0.001318	-0.143228	-0.062378	0.217705	-0.008016	0.161116	0.173589	0.036726	0.087382	0.098929	0.021247	0.211655	0.092780	-0.098320	0.244496	0.032170	0.004531	0.009820	0.232270	0.004588	0.120622	0.279112	-0.275003	0.024379	0.194322	-0.293174	-0.011449	0.319200	-0.528783	-0.089463	0.383797	-0.492466	-0.105010	
357	3.5700	0.022070	0.102827	0.161296	0.010615	-0.114269	0.237370	0.006965	-0.002318	0.004371	0.001456	-0.143299	-0.062431	0.217876	-0.008048	0.160995	0.173834	0.036569	0.087136	0.099057	0.021344	0.211488	0.092862	-0.098235	0.244627	0.032301	0.004436	0.009692	0.232515	0.004367	0.120564	0.278234	-0.276249	0.026459	0.193547	-0.294140	-0.009692	0.317385	-0.530900	-0.085725	0.382241	-0.495101	-0.101323	
358	3.5800	0.022213	0.102850	0.161114	0.010644	-0.114230	0.237318	0.007130	-0.002413	0.004265	0.001584	-0.143369	-0.062475	0.218033	-0.008065	0.160902	0.174079	0.036458	0.086942	0.099174	0.021438	0.211346	0.092873	-0.098161	0.244713	0.032445	0.004376	0.009545	0.232776	0.004173	0.120555	0.277434	-0.277391	0.028401	0.192853	-0.295069	-0.007959	0.315806	-0.532816	-0.082253	0.380817	-0.497417	-0.098051	
359	3.5900	0.022345	0.102862	0.160926	0.010659	-0.114192	0.237273	0.007300	-0.002517	0.004162	0.001704	-0.143438	-0.062510	0.218162	-0.008067	0.160845	0.174315	0.036396	0.086785	0.099272	0.021537	0.211236	0.092836	-0.098100	0.244760	0.032587	0.004332	0.009391	0.233007	0.004011	0.120567	0.276726	-0.278425	0.030203	0.192219	-0.295963	-0.006258	0.314451	-0.534552	-0.079054	0.379528	-0.499427	-0.095165	
360	3.6000	0.022460	0.102856	0.160729	0.010661	-0.114154	0.237234	0.007467	-0.002620	0.004067	0.001821	-0.143507	-0.062534	0.218259	-0.008065	0.160827	0.174538	0.036364	0.086655	0.099346	0.021636	0.211155	0.092759	-0.098053	0.244769	0.032720	0.004293	0.009247	0.233187	0.003877	0.120586	0.276096	-0.279365	0.031851	0.191624	-0.296816	-0.004610	0.313294	-0.536115	-0.076144	0.378378	-0.501163	-0.092628	
361	3.6100	0.022553	0.102834	0.160534	0.010651	-0.114117	0.237199	0.007624	-0.002717	0.003984	0.001941	-0.143575	-0.062547	0.218324	-0.008070	0.160849	0.174745	0.036350	0.086549	0.099394	0.021727	0.211095	0.092641	-0.098029	0.244722	0.032852	0.004248	0.009131	0.233322	0.003758	0.120617	0.275507	-0.280220	0.033324	0.191067	-0.297611	-0.003048	0.312300	-0.537499	-0.073525	0.377368	-0.502665	-0.090401	
362	3.6200	0.022623	0.102818	0.160359	0.010628	-0.114080	0.237169	0.007771	-0.002803	0.003917	0.002073	-0.143643	-0.062551	0.218362	-0.008090	0.160911	0.174943	0.036344	0.086476	0.099414	0.021800	0.211051	0.092481	-0.098031	0.244609	0.032995	0.004192	0.009054	0.233428	0.003640	0.120670	0.274954	-0.280973	0.034626	0.190553	-0.298316	-0.001616	0.311447	-0.538700	-0.071201	0.376497	-0.503960	-0.088450	
363	3.6300	0.022669	0.102821	0.160217	0.010596	-0.114045	0.237143	0.007910	-0.002877	0.003865	0.002220	-0.143708	-0.062548	0.218380	-0.008121	0.161008	0.175127	0.036340	0.086446	0.099400	0.021851	0.211022	0.092304	-0.098050	0.244484	0.033151	0.004131	0.009010	0.233505	0.003519	0.120748	0.274495	-0.281583	0.035789	0.190098	-0.298907	-0.000353	0.310722	-0.539724	-0.069174	0.375761	-0.505065	-0.086746	
364	3.6400	0.022693	0.102841	0.160106	0.010554	-0.114013	0.237122	0.008046	-0.002940	0.003827	0.002386	-0.143766	-0.062541	0.218379	-0.008154	0.161133	0.175273	0.036344	0.086460	0.099344	0.021879	0.211008	0.092145	-0.098066	0.244444	0.033319	0.004088	0.008987	0.233555	0.003410	0.120848	0.274163	-0.282034	0.036835	0.189716	-0.299378	0.000714	0.310131	-0.540582	-0.067434	0.375155	-0.505985	-0.085269	
365	3.6500	0.022695	0.102867	0.160018	0.010506	-0.113985	0.237106	0.008183	-0.002995	0.003799	0.002566	-0.143815	-0.062533	0.218364	-0.008178	0.161269	0.175370	0.036362	0.086516	0.099247	0.021890	0.211006	0.092019	-0.098071	0.244531	0.033494	0.004083	0.008977	0.233591	0.003333	0.120969	0.273918	-0.282350	0.037764	0.189419	-0.299739	0.001572	0.309679	-0.541281	-0.065956	0.374678	-0.506725	-0.084000	
366	3.6600	0.022670	0.102890	0.159948	0.010453	-0.113961	0.237094	0.008321	-0.003045	0.003778	0.002752	-0.143857	-0.062526	0.218346	-0.008189	0.161400	0.175426	0.036383	0.086607	0.099123	0.021894	0.211020	0.091910	-0.098076	0.244689	0.033660	0.004119	0.008974	0.233628	0.003298	0.121101	0.273703	-0.282581	0.038578	0.189210	-0.300009	0.002224	0.309357	-0.541840	-0.064723	0.374322	-0.507299	-0.082922	
367	3.6700	0.022620	0.102903	0.159895	0.010397	-0.113942	0.237088	0.008463	-0.003092	0.003761	0.002936	-0.143893	-0.062516	0.218335	-0.008181	0.161526	0.175457	0.036402	0.086719	0.098994	0.021897	0.211057	0.091798	-0.098094	0.244825	0.033790	0.004165	0.008975	0.233648	0.003287	0.121207	0.273488	-0.282773	0.039286	0.189079	-0.300209	0.002699	0.309121	-0.542281	-0.063721	0.374064	-0.507734	-0.082016	
368	3.6800	0.022549	0.102911	0.159864	0.010341	-0.113927	0.237086	0.008607	-0.003139	0.003746	0.003108	-0.143929	-0.062503	0.218335	-0.008152	0.161651	0.175478	0.036426	0.086838	0.098877	0.021900	0.211117	0.091680	-0.098119	0.244917	0.033885	0.004182	0.008978	0.233650	0.003291	0.121281	0.273289	-0.282958	0.039892	0.189010	-0.300354	0.003039	0.308931	-0.542620	-0.062930	0.373886	-0.508058	-0.081263	
369	3.6900	0.022466	0.102920	0.159857	0.010288	-0.113916	0.237089	0.008754	-0.003184	0.003731	0.003264	-0.143965	-0.062484	0.218344	-0.008107	0.161775	0.175496	0.036459	0.086955	0.098772	0.021900	0.211194	0.091565	-0.098134	0.245018	0.033973	0.004155	0.008988	0.233664	0.003322	0.121369	0.273140	-0.283148	0.040399	0.188984	-0.300453	0.003290	0.308784	-0.542860	-0.062324	0.373773	-0.508293	-0.080647	
370	3.7000	0.022376	0.102933	0.159871	0.010238	-0.113907	0.237097	0.008898	-0.003223	0.003714	0.003403	-0.144000	-0.062463	0.218360	-0.008053	0.161895	0.175510	0.036492	0.087059	0.098676	0.021897	0.211276	0.091462	-0.098127	0.245156	0.034082	0.004104	0.009002	0.233714	0.003387	0.121510	0.273066	-0.283326	0.040818	0.188987	-0.300507	0.003487	0.308694	-0.543011	-0.061881	0.373713	-0.508448	-0.080156	
371	3.7100	0.022283	0.102950	0.159895	0.010194	-0.113900	0.237108	0.009033	-0.003255	0.003695	0.003527	-0.144031	-0.062443	0.218374	-0.007992	0.162008	0.175522	0.036523	0.087143	0.098584	0.021902	0.211351	0.091371	-0.098102	0.245304	0.034211	0.004055	0.009009	0.233784	0.003476	0.121692	0.273062	-0.283458	0.041169	0.189009	-0.300517	0.003648	0.308668	-0.543084	-0.061582	0.373705	-0.508521	-0.079790	
372	3.7200	0.022189	0.102972	0.159914	0.010157	-0.113893	0.237123	0.009148	-0.003276	0.003679	0.003639	-0.144053	-0.062426	0.218370	-0.007921	0.162122	0.175531	0.036560	0.087214	0.098500	0.021927	0.211413	0.091290	-0.098067	0.245419	0.034330	0.004024	0.009006	0.233838	0.003568	0.121874	0.273109	-0.283512	0.041460	0.189038	-0.300490	0.003772	0.308709	-0.543090	-0.061407	0.373747	-0.508512	-0.079552	
373	3.7300	0.022089	0.102996	0.159924	0.010128	-0.113887	0.237142	0.009237	-0.003287	0.003669	0.003740	-0.144067	-0.062413	0.218339	-0.007843	0.162236	0.175534	0.036613	0.087283	0.098427	0.021977	0.211466	0.091215	-0.098035	0.245484	0.034407	0.004016	0.009005	0.233859	0.003656	0.122036	0.273185	-0.283490	0.041682	0.189064	-0.300433	0.003841	0.308820	-0.543034	-0.061337	0.373839	-0.508424	-0.079444	
374	3.7400	0.021984	0.103017	0.159929	0.010105	-0.113881	0.237165	0.009295	-0.003290	0.003670	0.003832	-0.144072	-0.062404	0.218286	-0.007768	0.162346	0.175525	0.036671	0.087357	0.098364	0.022036	0.211512	0.091147	-0.098011	0.245504	0.034439	0.004030	0.009025	0.233862	0.003738	0.122193	0.273276	-0.283411	0.041821	0.189078	-0.300354	0.003835	0.308996	-0.542925	-0.061363	0.373981	-0.508266	-0.079461	
375	3.7500	0.021878	0.103031	0.159941	0.010090	-0.113875	0.237193	0.009322	-0.003287	0.003685	0.003915	-0.144071	-0.062397	0.218220	-0.007707	0.162454	0.175511	0.036720	0.087448	0.098305	0.022086	0.211558	0.091088	-0.097994	0.245504	0.034441	0.004057	0.009064	0.233856	0.003812	0.122360	0.273381	-0.283289	0.041884	0.189081	-0.300262	0.003746	0.309218	-0.542776	-0.061503	0.374162	-0.508051	-0.079592	
376	3.7600	0.021771	0.103039	0.159973	0.010080	-0.113868	0.237225	0.009319	-0.003282	0.003717	0.003989	-0.144066	-0.062388	0.218151	-0.007661	0.162563	0.175497	0.036759	0.087560	0.098247	0.022118	0.211609	0.091041	-0.097976	0.245506	0.034433	0.004078	0.009105	0.233840	0.003878	0.122537	0.273503	-0.283139	0.041894	0.189079	-0.300164	0.003586	0.309457	-0.542598	-0.061776	0.374370	-0.507788	-0.079818	
377	3.7700	0.021664	0.103044	0.160026	0.010075	-0.113862	0.237261	0.009289	-0.003277	0.003763	0.004052	-0.144056	-0.062376	0.218091	-0.007621	0.162673	0.175479	0.036805	0.087684	0.098187	0.022135	0.211670	0.091005	-0.097958	0.245517	0.034425	0.004084	0.009135	0.233801	0.003932	0.122702	0.273636	-0.282981	0.041875	0.189085	-0.300071	0.003391	0.309697	-0.542387	-0.062184	0.374597	-0.507484	-0.080119	
378	3.7800	0.021558	0.103049	0.160087	0.010075	-0.113856	0.237302	0.009236	-0.003274	0.003822	0.004106	-0.144043	-0.062360	0.218044	-0.007577	0.162779	0.175452	0.036867	0.087805	0.098123	0.022146	0.211740	0.090978	-0.097938	0.245550	0.034416	0.004084	0.009161	0.233733	0.003983	0.122831	0.273749	-0.282844	0.041828	0.189112	-0.299990	0.003206	0.309930	-0.542129	-0.062708	0.374848	-0.507135	-0.080484	
379	3.7900	0.021458	0.103052	0.160140	0.010079	-0.113852	0.237345	0.009164	-0.003269	0.003888	0.004148	-0.144025	-0.062340	0.218006	-0.007522	0.162871	0.175411	0.036934	0.087908	0.098054	0.022161	0.211814	0.090959	-0.097919	0.245611	0.034394	0.004097	0.009194	0.233646	0.004042	0.122921	0.273797	-0.282747	0.041729	0.189166	-0.299925	0.003071	0.310164	-0.541818	-0.063316	0.375130	-0.506737	-0.080915	
380	3.8000	0.021364	0.103060	0.160185	0.010086	-0.113851	0.237391	0.009081	-0.003263	0.003954	0.004178	-0.144004	-0.062316	0.217969	-0.007461	0.162940	0.175362	0.036994	0.087993	0.097988	0.022187	0.211884	0.090945	-0.097903	0.245687	0.034350	0.004130	0.009243	0.233555	0.004118	0.122984	0.273763	-0.282693	0.041549	0.189248	-0.299875	0.003004	0.310432	-0.541453	-0.063978	0.375444	-0.506295	-0.081424	
381	3.8100	0.021276	0.103073	0.160230	0.010098	-0.113853	0.237440	0.008998	-0.003252	0.004018	0.004198	-0.143982	-0.062286	0.217938	-0.007400	0.162981	0.175307	0.037041	0.088057	0.097934	0.022219	0.211945	0.090936	-0.097888	0.245757	0.034281	0.004175	0.009308	0.233465	0.004206	0.123022	0.273691	-0.282657	0.041291	0.189354	-0.299834	0.003002	0.310767	-0.541043	-0.064688	0.375782	-0.505814	-0.082023	
382	3.8200	0.021197	0.103083	0.160281	0.010114	-0.113859	0.237490	0.008920	-0.003236	0.004075	0.004207	-0.143961	-0.062252	0.217917	-0.007349	0.162994	0.175243	0.037079	0.088096	0.097900	0.022245	0.212003	0.090936	-0.097875	0.245811	0.034202	0.004218	0.009387	0.233384	0.004294	0.123043	0.273662	-0.282597	0.040992	0.189479	-0.299794	0.003052	0.311170	-0.540601	-0.065471	0.376136	-0.505300	-0.082723	
383	3.8300	0.021135	0.103085	0.160336	0.010137	-0.113868	0.237543	0.008850	-0.003215	0.004128	0.004205	-0.143940	-0.062213	0.217904	-0.007314	0.162990	0.175174	0.037109	0.088115	0.097887	0.022259	0.212060	0.090950	-0.097861	0.245850	0.034133	0.004248	0.009463	0.233325	0.004374	0.123052	0.273729	-0.282488	0.040695	0.189612	-0.299752	0.003132	0.311614	-0.540137	-0.066364	0.376500	-0.504744	-0.083538	
